<?xml version="1.0" encoding="utf-8"?>
<!-- Generator: Adobe Illustrator 26.1.0, SVG Export Plug-In . SVG Version: 6.00 Build 0)  -->
<svg version="1.1" id="Layer_1" xmlns="http://www.w3.org/2000/svg" xmlns:xlink="http://www.w3.org/1999/xlink" x="0px" y="0px"
	 viewBox="0 0 3477 3477" style="enable-background:new 0 0 3477 3477;" xml:space="preserve">
<g>
	<path d="M3066,1050.8l-708,392.8v594.3l709.2,387.2L3066,1050.8z M2604,2017.9c0,23.4-26.5,38-47.8,26.4l-88.2-48.2
		c-10-5.4-16.1-15.5-16.1-26.4v-458.5c0-10.8,6.1-20.8,15.9-26.3l88.2-48.9c21.3-11.8,48,2.8,48,26.3V2017.9z M2972.9,2219.3
		c0,23.4-26.5,38-47.8,26.4l-88.2-48.2c-10-5.4-16.1-15.5-16.1-26.4v-864.6c0-10.8,6-20.8,15.9-26.2l88.2-49
		c21.3-11.8,48,2.8,48,26.3V2219.3z"/>
	<path d="M341.8,1050.8l-1.3,1374.3l709.3-387.2v-594.3L341.8,1050.8z M587,2171.1c0,10.9-6.1,21-16.1,26.4l-88.2,48.2
		c-21.3,11.6-47.8-3-47.8-26.4v-961.7c0-23.5,26.7-38.1,48-26.3l88.2,49c9.8,5.4,15.9,15.4,15.9,26.2V2171.1z M955.8,1969.7
		c0,10.9-6.1,21-16.1,26.4l-88.2,48.2c-21.3,11.6-47.8-3-47.8-26.4v-555.6c0-23.5,26.7-38.1,48-26.3l88.2,48.9
		c9.9,5.5,15.9,15.5,15.9,26.3V1969.7z"/>
	<path d="M1121.9,2157.3l-694.2,416.6l1189.6,688.3l19.3-807.8L1121.9,2157.3z M1533,3049.4c-0.6,24.2-26.5,39.9-46.8,28.2
		l-832.9-480.9c-20.3-11.7-19.6-42.2,1.2-54.7l86.5-51.9c9.7-5.8,21.4-6,30.8-0.6l748.8,432.3c9.4,5.5,15.1,15.8,14.8,27.1
		L1533,3049.4z M1543,2629.2c-0.6,24.2-26.5,39.9-46.8,28.2L1015,2379.6c-20.3-11.7-19.6-42.2,1.2-54.7l86.5-51.9
		c9.8-5.8,21.4-6,30.8-0.6l397.1,229.2c9.4,5.5,15.1,15.8,14.8,27.1L1543,2629.2z"/>
	<path d="M1789.8,214.8l-13.8,809.5l514.8,297.2l689.9-420.6L1789.8,214.8z M2395.4,1153l-85.8,52.3c-9.7,5.9-21.5,6.2-30.9,0.7
		l-397.1-229.2c-9.4-5.4-15.1-15.7-14.9-26.9l1.7-100.9c0.4-24.3,26.5-40.1,46.8-28.4l481.2,277.8
		C2416.7,1110.1,2416.1,1140.4,2395.4,1153z M2754.2,934.3l-85.8,52.3c-9.7,5.9-21.5,6.2-30.9,0.7L1888.7,555
		c-9.3-5.5-15-15.7-14.9-26.8l1.7-100.9c0.4-24.3,26.5-40.1,46.8-28.4l832.9,480.8C2775.5,891.4,2774.9,921.7,2754.2,934.3z"/>
	<path d="M1618,214.8L427.1,900.9l689.9,420.6l514.7-297.2L1618,214.8z M739.4,986.6l-85.8-52.3c-20.7-12.6-21.3-42.9-1-54.6
		l832.9-480.8c20.3-11.7,46.4,4.1,46.8,28.4l1.7,100.9c0.1,11.1-5.6,21.3-15,26.8L770.3,987.3C760.9,992.8,749.1,992.5,739.4,986.6z
		 M1526.2,976.8L1129.1,1206c-9.4,5.5-21.2,5.2-30.9-0.7l-85.8-52.3c-20.7-12.6-21.3-42.9-1-54.6l481.2-277.8
		c20.3-11.7,46.4,4.1,46.8,28.4l1.7,100.9C1541.2,961.1,1535.6,971.4,1526.2,976.8z"/>
	<path d="M2285.9,2157.3l-514.8,297.1l19.3,807.8l1189.7-688.3L2285.9,2157.3z M1862.3,2528.7c-0.3-11.3,5.4-21.6,14.8-27.1
		l397.1-229.2c9.4-5.4,21.1-5.2,30.8,0.6l86.5,51.9c20.8,12.5,21.5,43,1.2,54.7l-481.2,277.8c-20.3,11.7-46.2-4-46.8-28.2
		L1862.3,2528.7z M2754.5,2596.7l-832.9,480.9c-20.3,11.7-46.2-4-46.8-28.2l-2.4-100.5c-0.3-11.3,5.4-21.6,14.8-27.1l748.8-432.3
		c9.3-5.4,21-5.2,30.8,0.6l86.5,51.9C2774.1,2554.5,2774.8,2585,2754.5,2596.7z"/>
</g>
</svg>
